<?xml version="1.0" encoding="UTF-8"?>
<svg version="1.1" viewBox="0 0 18 19" xmlns="http://www.w3.org/2000/svg" height="18">
<g fill="none" fill-rule="evenodd">
<g transform="translate(-169 -170)" fill="#000">
<g transform="translate(169 170)">
<path d="m13.5 9c0-1.8-1-3.3-2.5-4v2.2l2.5 2.5v-0.7zm2.5 0c0 0.9-0.2 1.8-0.5 2.6l1.5 1.5c0.7-1.2 1-2.7 1-4.2 0-4.3-3-7.9-7-8.8v2.1c2.9 1 5 3.6 5 6.8zm-14.7-9-1.3 1.3 4.7 4.7h-4.7v6h4l5 5v-6.7l4.3 4.3c-0.7 0.5-1.4 0.9-2.3 1.2v2.1c1.4-0.3 2.6-0.9 3.7-1.8l2 2 1.3-1.3-9-9-7.7-7.8zm7.7 1-2.1 2.1 2.1 2.1v-4.2z"/>
</g>
</g>
</g>
</svg>
